<svg width="64" height="64" viewBox="0 0 64 64" fill="none" xmlns="http://www.w3.org/2000/svg">
<g clip-path="url(#clip0_2883_3899)">
<path d="M52 0H12C5.37258 0 0 5.37258 0 12V52C0 58.6274 5.37258 64 12 64H52C58.6274 64 64 58.6274 64 52V12C64 5.37258 58.6274 0 52 0Z" fill="#6366F1"/>
<path d="M30.2826 24.4324C35.7569 26.3646 41.6607 26.2572 47.0814 24.1641C47.135 21.9636 46.5447 19.7631 45.5249 17.7773L44.9882 16.7039C44.8272 16.7576 44.6125 16.8649 44.5052 16.9723C39.5675 19.3338 33.9858 19.6558 28.7798 17.7773C25.1302 16.4892 21.1586 16.8113 17.7237 18.5287L16.6503 19.0654C16.704 19.2264 16.8113 19.4411 16.9186 19.5484C17.5627 20.9439 18.0994 22.4466 18.4751 24.0031C22.232 22.9297 26.4183 23.037 30.2826 24.4324Z" fill="white"/>
<path d="M16.9187 40.5871L18.0995 39.9431C20.4919 38.7469 23.1313 38.1678 25.75 38.2442C27.361 38.2911 28.9642 38.5861 30.4973 39.138C30.9967 39.3153 31.4977 39.478 32 39.6263V45.347C29.9221 44.9607 27.8184 44.9055 25.75 45.1718C23.6044 45.448 21.4967 46.0702 19.4949 47.0276C19.3875 47.1349 19.1729 47.2423 19.0119 47.2959L18.4751 46.2225C17.5628 44.4514 17.0261 42.5193 16.9187 40.5871Z" fill="white"/>
<path d="M17.5626 35.6494C22.1246 33.771 27.2233 33.61 31.8926 35.2737C36.1862 36.7765 40.7482 37.0449 45.0418 36.0788C44.9881 33.6636 45.3102 31.3021 46.1689 28.9406C40.5335 30.6044 34.4687 30.4434 28.8334 28.4576C25.6131 27.2769 22.0709 27.2769 18.8507 28.3503C18.9043 30.6581 18.475 33.0196 17.6699 35.3274C17.6699 35.3274 17.6163 35.4884 17.5626 35.6494Z" fill="white"/>
</g>
<defs>
<clipPath id="clip0_2883_3899">
<rect width="64" height="64" fill="white"/>
</clipPath>
</defs>
</svg>
