<svg width="64" height="64" viewBox="0 0 64 64" fill="none" xmlns="http://www.w3.org/2000/svg">
<rect width="64" height="64" rx="12" fill="#22C55E"/>
<path d="M30.2826 24.4324C35.7569 26.3646 41.6607 26.2572 47.0814 24.1641C47.135 21.9636 46.5447 19.7631 45.5249 17.7773L44.9882 16.7039C44.8272 16.7576 44.6125 16.8649 44.5052 16.9723C39.5675 19.3338 33.9858 19.6558 28.7798 17.7773C25.1302 16.4892 21.1586 16.8113 17.7237 18.5287L16.6503 19.0654C16.704 19.2264 16.8113 19.4411 16.9186 19.5484C17.5627 20.9439 18.0994 22.4466 18.4751 24.0031C22.232 22.9297 26.4183 23.037 30.2826 24.4324Z" fill="white"/>
<path d="M16.9187 40.5871L18.0995 39.9431C20.4919 38.7469 23.1313 38.1678 25.75 38.2442C27.361 38.2911 28.9642 38.5861 30.4973 39.138C30.9967 39.3153 31.4977 39.478 32 39.6263V45.347C29.9221 44.9607 27.8184 44.9055 25.75 45.1718C23.6044 45.448 21.4967 46.0702 19.4949 47.0276C19.3875 47.1349 19.1729 47.2423 19.0119 47.2959L18.4751 46.2225C17.5628 44.4514 17.0261 42.5193 16.9187 40.5871Z" fill="white"/>
<path d="M17.5626 35.6495C22.1246 33.7711 27.2233 33.6101 31.8926 35.2738C36.1862 36.7766 40.7482 37.045 45.0418 36.0789C44.9881 33.6637 45.3102 31.3022 46.1689 28.9407C40.5335 30.6045 34.4687 30.4435 28.8334 28.4577C25.6131 27.277 22.0709 27.277 18.8507 28.3504C18.9043 30.6582 18.475 33.0197 17.6699 35.3275C17.6699 35.3275 17.6163 35.4885 17.5626 35.6495Z" fill="white"/>
</svg>
