<svg width="95" height="32" viewBox="0 0 95 32" fill="none" xmlns="http://www.w3.org/2000/svg">
<path d="M76.253 11.5734C80.6325 13.1191 85.3555 13.0332 89.692 11.3587C89.735 9.59833 89.2627 7.83794 88.4469 6.2493L88.0175 5.39058C87.8887 5.43351 87.717 5.51939 87.6311 5.60526C83.681 7.49446 79.2156 7.75208 75.0508 6.24931C72.1311 5.21884 68.9538 5.47645 66.2059 6.85041L65.3472 7.27977C65.3901 7.40858 65.476 7.58032 65.5619 7.6662C66.0771 8.78254 66.5065 9.98476 66.807 11.2299C69.8126 10.3712 73.1616 10.4571 76.253 11.5734Z" fill="#22C55E"/>
<path d="M65.5616 24.497L66.5062 23.9817C68.4202 23.0247 70.5317 22.5615 72.6267 22.6226C73.9155 22.6601 75.198 22.8961 76.4245 23.3377C76.824 23.4794 77.2248 23.6096 77.6267 23.7282V28.3049C75.9643 27.9958 74.2814 27.9516 72.6267 28.1647C70.9102 28.3856 69.224 28.8834 67.6226 29.6493C67.5367 29.7352 67.3649 29.8211 67.2361 29.864L66.8068 29.0053C66.0769 27.5884 65.6475 26.0427 65.5616 24.497Z" fill="#22C55E"/>
<path d="M66.0772 20.5471C69.7268 19.0443 73.8058 18.9155 77.5412 20.2465C80.9761 21.4487 84.6257 21.6634 88.0606 20.8906C88.0177 18.9584 88.2753 17.0692 88.9623 15.18C84.4539 16.5111 79.6021 16.3823 75.0938 14.7936C72.5177 13.849 69.6839 13.849 67.1077 14.7077C67.1506 16.554 66.8071 18.4432 66.1631 20.2894C66.1631 20.2894 66.1202 20.4183 66.0772 20.5471Z" fill="#22C55E"/>
<path d="M30.952 24V21.904H32.616V24H30.952ZM16.584 27.968C15.6347 27.968 14.7867 27.792 14.04 27.44C13.2933 27.0987 12.7067 26.624 12.28 26.016C11.8533 25.408 11.64 24.7147 11.64 23.936C11.64 23.7227 11.656 23.4453 11.688 23.104C11.72 22.752 11.7627 22.3627 11.816 21.936C11.8693 21.5093 11.928 21.072 11.992 20.624C12.0667 20.1653 12.136 19.7227 12.2 19.296L14.616 19.616C14.5093 20.3307 14.4133 20.9813 14.328 21.568C14.2533 22.144 14.1947 22.6347 14.152 23.04C14.1093 23.4347 14.088 23.728 14.088 23.92C14.088 24.3147 14.184 24.656 14.376 24.944C14.568 25.2427 14.8507 25.472 15.224 25.632C15.5973 25.792 16.0507 25.872 16.584 25.872C17.1493 25.872 17.5973 25.7867 17.928 25.616C18.2587 25.456 18.4933 25.2373 18.632 24.96C18.7707 24.6933 18.84 24.3893 18.84 24.048V17.6H21.288V24.048C21.288 24.8373 21.0853 25.5253 20.68 26.112C20.2747 26.6987 19.7147 27.152 19 27.472C18.296 27.8027 17.4907 27.968 16.584 27.968ZM21.256 24L21.288 21.904H22.424C22.7547 21.904 23.0107 21.856 23.192 21.76C23.3733 21.6533 23.496 21.4453 23.56 21.136C23.6347 20.816 23.672 20.336 23.672 19.696V16.8H26.12V19.696C26.12 20.6987 25.9867 21.52 25.72 22.16C25.4533 22.7893 25.048 23.2533 24.504 23.552C23.96 23.8507 23.2667 24 22.424 24H21.256ZM26.792 24C26.3227 24 25.8587 23.9147 25.4 23.744C24.952 23.5627 24.5307 23.3013 24.136 22.96L25.624 21.424C25.816 21.584 26.008 21.7067 26.2 21.792C26.392 21.8667 26.5893 21.904 26.792 21.904H29.848L28.504 23.088V19.616C28.504 19.456 28.4827 19.2053 28.44 18.864C28.408 18.512 28.3547 18.1173 28.28 17.68C28.216 17.232 28.1413 16.7787 28.056 16.32L30.472 15.952C30.5467 16.336 30.616 16.768 30.68 17.248C30.7547 17.728 30.8187 18.1813 30.872 18.608C30.9253 19.0347 30.952 19.3707 30.952 19.616V24H26.792ZM32.616 24V21.904C32.68 21.904 32.728 21.9307 32.76 21.984C32.8027 22.0267 32.8347 22.096 32.856 22.192C32.888 22.2773 32.9093 22.384 32.92 22.512C32.9307 22.64 32.936 22.784 32.936 22.944C32.936 23.104 32.9307 23.2533 32.92 23.392C32.9093 23.52 32.888 23.632 32.856 23.728C32.8347 23.8133 32.8027 23.8827 32.76 23.936C32.728 23.9787 32.68 24 32.616 24ZM42.3054 24V21.904H43.9854V24H42.3054ZM32.6094 24C32.556 24 32.508 23.9787 32.4654 23.936C32.4227 23.8827 32.3907 23.8133 32.3694 23.728C32.348 23.632 32.332 23.52 32.3214 23.392C32.3 23.2533 32.2894 23.104 32.2894 22.944C32.2894 22.7307 32.3 22.5493 32.3214 22.4C32.3427 22.24 32.38 22.1173 32.4334 22.032C32.476 21.9467 32.5347 21.904 32.6094 21.904V24ZM32.6094 24V21.904H40.6414L39.8734 22.528V20.592C39.8734 20.048 39.8147 19.616 39.6974 19.296C39.5907 18.976 39.4307 18.7467 39.2174 18.608C39.004 18.4693 38.732 18.4 38.4014 18.4H34.8814L33.4254 16.304L34.2734 14.688C34.3587 14.528 34.4547 14.352 34.5614 14.16C34.6787 13.9573 34.828 13.712 35.0094 13.424C35.2014 13.1253 35.4414 12.752 35.7294 12.304L37.7934 13.456C37.5267 13.84 37.3134 14.1653 37.1534 14.432C36.9934 14.6987 36.8547 14.928 36.7374 15.12C36.6307 15.312 36.5294 15.504 36.4334 15.696L35.8574 16.784L35.5374 16.304H38.4014C39.0947 16.304 39.6867 16.416 40.1774 16.64C40.668 16.864 41.068 17.1787 41.3774 17.584C41.6974 17.9787 41.932 18.432 42.0814 18.944C42.2307 19.456 42.3054 20.0053 42.3054 20.592V24H32.6094ZM43.9854 24V21.904C44.0387 21.904 44.0867 21.9307 44.1294 21.984C44.172 22.0267 44.204 22.096 44.2254 22.192C44.2467 22.2773 44.2627 22.384 44.2734 22.512C44.2947 22.64 44.3054 22.784 44.3054 22.944C44.3054 23.104 44.2947 23.2533 44.2734 23.392C44.2627 23.52 44.2467 23.632 44.2254 23.728C44.204 23.8133 44.172 23.8827 44.1294 23.936C44.0867 23.9787 44.0387 24 43.9854 24ZM48.2084 24V21.904H49.8724V24H48.2084ZM43.9844 24C43.931 24 43.883 23.9787 43.8404 23.936C43.7977 23.8827 43.7657 23.8133 43.7444 23.728C43.723 23.632 43.707 23.52 43.6964 23.392C43.675 23.2533 43.6644 23.104 43.6644 22.944C43.6644 22.7307 43.675 22.5493 43.6964 22.4C43.7177 22.24 43.755 22.1173 43.8084 22.032C43.851 21.9467 43.9097 21.904 43.9844 21.904V24ZM45.7604 24V12.752H48.2084V24H45.7604ZM43.9844 24V21.904H45.7604V24H43.9844ZM49.8724 24V21.904C49.9364 21.904 49.9844 21.9307 50.0164 21.984C50.059 22.0267 50.091 22.096 50.1124 22.192C50.1444 22.2773 50.1657 22.384 50.1764 22.512C50.187 22.64 50.1924 22.784 50.1924 22.944C50.1924 23.104 50.187 23.2533 50.1764 23.392C50.1657 23.52 50.1444 23.632 50.1124 23.728C50.091 23.8133 50.059 23.8827 50.0164 23.936C49.9844 23.9787 49.9364 24 49.8724 24ZM49.875 24V21.904H57.139L56.547 22.416V17.632L57.043 18.048H55.267C54.851 18.048 54.5203 18.1067 54.275 18.224C54.0403 18.3307 53.8697 18.5227 53.763 18.8C53.667 19.0773 53.619 19.472 53.619 19.984C53.619 20.5493 53.667 20.9707 53.763 21.248C53.8697 21.5147 54.0403 21.6907 54.275 21.776C54.5203 21.8613 54.851 21.904 55.267 21.904V23.84C54.371 23.84 53.6137 23.712 52.995 23.456C52.387 23.2 51.9283 22.7893 51.619 22.224C51.3203 21.648 51.171 20.9013 51.171 19.984C51.171 19.12 51.3203 18.3893 51.619 17.792C51.9283 17.1947 52.387 16.7413 52.995 16.432C53.6137 16.112 54.371 15.952 55.267 15.952H58.995V24H49.875ZM49.875 24C49.8217 24 49.7737 23.9787 49.731 23.936C49.6883 23.8827 49.6563 23.8133 49.635 23.728C49.6137 23.632 49.5977 23.52 49.587 23.392C49.5657 23.2533 49.555 23.104 49.555 22.944C49.555 22.7307 49.5657 22.5493 49.587 22.4C49.6083 22.24 49.6457 22.1173 49.699 22.032C49.7417 21.9467 49.8003 21.904 49.875 21.904V24ZM54.259 14.464V12.512H56.723V14.464H54.259Z" fill="white"/>
</svg>
